<svg viewBox="0 0 320 200" xmlns="http://www.w3.org/2000/svg">
  <rect width="320" height="200" fill="#f0fdf4" rx="12"/>
  <rect x="0" y="183" width="320" height="17" fill="#bbf7d0"/>

  <!-- Key with question mark (lost key) -->
  <g transform="translate(210, 80) rotate(35)">
    <circle cx="0"  cy="0"  r="18" fill="none" stroke="#d97706" stroke-width="6"/>
    <circle cx="0"  cy="0"  r="11" fill="none" stroke="#d97706" stroke-width="3"/>
    <rect x="-3" cy="18" width="6" height="36" fill="#d97706" rx="2"/>
    <rect x="-3" y="18" width="6" height="36" fill="#d97706" rx="2"/>
    <rect x="3"  y="34" width="12" height="6"  fill="#d97706" rx="2"/>
    <rect x="3"  y="44" width="10" height="6"  fill="#d97706" rx="2"/>
  </g>
  <!-- Big red X over the key -->
  <circle cx="226" cy="96" r="24" fill="#fee2e2" opacity="0.7" stroke="#fca5a5" stroke-width="1.5"/>
  <text x="226" y="104" font-size="26" text-anchor="middle" fill="#dc2626" opacity="0.8" font-weight="bold">?</text>

  <!-- Empty pockets visualised -->
  <!-- Jacket with empty pockets -->
  <rect x="40" y="118" width="100" height="50" fill="#6d28d9" rx="8" opacity="0.3"/>
  <rect x="50"  y="128" width="28" height="24" fill="white" rx="4" stroke="#6d28d9" stroke-width="1.5" opacity="0.6"/>
  <rect x="102" y="128" width="28" height="24" fill="white" rx="4" stroke="#6d28d9" stroke-width="1.5" opacity="0.6"/>
  <text x="64"  y="144" font-size="14" text-anchor="middle" fill="#d1d5db">∅</text>
  <text x="116" y="144" font-size="14" text-anchor="middle" fill="#d1d5db">∅</text>

  <!-- Child searching pockets -->
  <circle cx="90" cy="96" r="21" fill="#fbbf24"/>
  <path d="M 82 91 Q 85 88 88 91" stroke="#374151" stroke-width="2.5" fill="none" stroke-linecap="round"/>
  <path d="M 93 91 Q 96 88 99 91" stroke="#374151" stroke-width="2.5" fill="none" stroke-linecap="round"/>
  <path d="M 83 107 Q 90 103 97 107" stroke="#374151" stroke-width="2" fill="none" stroke-linecap="round"/>

  <!-- Body wearing jacket -->
  <rect x="78" y="117" width="24" height="52" fill="#6d28d9" rx="10"/>

  <!-- Arms in pockets (searching) -->
  <line x1="78"  y1="128" x2="60"  y2="138" stroke="#fbbf24" stroke-width="9" stroke-linecap="round"/>
  <circle cx="57" cy="140" r="7"  fill="#fbbf24"/>
  <line x1="102" y1="128" x2="118" y2="140" stroke="#fbbf24" stroke-width="9" stroke-linecap="round"/>
  <circle cx="121" cy="142" r="7" fill="#fbbf24"/>

  <!-- Legs -->
  <line x1="84"  y1="169" x2="76"  y2="183" stroke="#4c1d95" stroke-width="9" stroke-linecap="round"/>
  <line x1="98"  y1="169" x2="106" y2="183" stroke="#4c1d95" stroke-width="9" stroke-linecap="round"/>
</svg>
